<?xml version="1.0" encoding="utf-8"?>
<svg version="1.1" id="Layer_1" xmlns="http://www.w3.org/2000/svg" x="0px" y="0px"
	 viewBox="0 0 552.3 552.3" style="enable-background:new 0 0 552.3 552.3;" xml:space="preserve">
<style type="text/css">
	.st0{fill:#FDFEFF;}
	.st1{fill:#DCBB41;}
	.st2{fill:#3F5EAB;}
	.st3{fill:#334CA0;}
	.st4{fill:#5976BA;}
	.st5{fill:#8E57A3;}
	.st6{fill:#D56DAA;}
	.st7{fill:url(#SVGID_1_);}
	.st8{fill:#BCA134;}
</style>
<path class="st0" d="M270.5,75c94.9-2.5,180.7,65.9,200.9,158.3C492,327,443.6,421,355.7,459C216.4,519.3,64.4,410,76.6,259.2
	C84.7,158.9,169.8,77.6,270.5,75L270.5,75z"/>
<path class="st1" d="M315.5,451.5c-5.3-2.8-11.4-4.3-16.7-7c7.4-4.1,15.5-6.7,22.4-11.9c2.1-1.5,27-25.7,29.9-28.9
	c2.3-2.5,28.1-33.4,30.2-36.1c15.1-19.8,37.2-64.7,45.3-88.5c8.5-24.9,14.1-50.5,14-76.9C488.9,309.6,424.1,428.7,315.5,451.5
	L315.5,451.5z"/>
<g>
	<path class="st2" d="M224.9,449.3C153.8,429.1,101.3,363.9,96,290.2c4.3,3,8.2,6.7,12.4,9.7l0,0c-0.8-0.1-1.2-0.1-1.1,0.8
		c0.4,4.8,28.4,43.6,32.4,50.7c12.6,22.6,36.8,54,57.2,70.1c10.7,8.5,22.2,18.3,35.4,22.3"/>
	<path class="st3" d="M297.8,443.9c0.4,0.2,0.7,0.4,1.1,0.5c5.4,2.7,11.4,4.2,16.7,7c-30,6.3-61,6.3-90.6-2.2l0.8-1.1
		c-5.8-0.1-3.2-1.1-2.4-4.3C244.5,450.4,277.5,453.6,297.8,443.9L297.8,443.9z"/>
	<path class="st4" d="M96,290.2c9,6.5,46.7,21.8,52.3,26.2c14.8,11.5,14.9,33.7,28.9,45.6c11.9,10,59.5,34.5,88.5,56.6
		c11.2,8.6,19.1,18.7,32.1,25.4c-20.2,9.7-53.3,6.5-74.4,0c-13.2-4.1-20.8-8.8-31.6-17.3c-20.4-16.1-49.1-49.4-61.8-72
		c-4-7.1-22.2-49.1-22.7-53.9c-0.1-0.9,0.3-0.9,1.1-0.8L96,290.2z"/>
</g>
<g>
	<path class="st5" d="M373.8,124.6c22.8,23.1,9.5,51.3-2.2,76c12-38.4,2.7-74-35.1-91.2c0.8-1.1,2-2.5,2.2-3.8
		C347.9,109.1,367.2,117.9,373.8,124.6L373.8,124.6z"/>
	<path class="st6" d="M371.6,200.6c-5.6,16.9-19.3,25.1-21.6,44c-4,10-22.6,25-23.7,23.2c5.5-9.5,7.2-24.2,10.8-32.4
		c5.8-13,15.6-12.9,16.2-36.7c1.1-44.4-36.5-59.4-16.7-89.3C374.3,126.6,383.6,162.3,371.6,200.6z"/>
</g>
<linearGradient id="SVGID_1_" gradientUnits="userSpaceOnUse" x1="139.7" y1="270.525" x2="440.6805" y2="270.525">
	<stop  offset="7.458905e-08" style="stop-color:#59297A"/>
	<stop  offset="0.8995" style="stop-color:#1A4A9F"/>
</linearGradient>
<path class="st7" d="M338.7,105.7c-0.2,1.3-1.4,2.6-2.2,3.8c-19.7,29.9,17.8,44.9,16.7,89.3c-0.6,23.8-10.4,23.6-16.2,36.7
	c-3.6,8.2-5.3,22.9-10.8,32.4c1.1,1.8,19.7-13.2,23.7-23.2c2.3-18.8,15.9-27.1,21.6-44c11.6-24.7,24.9-53,2.2-76.1
	c29.1,18.4,52.8,46.3,66.9,77.7c0.1,26.4-5.6,52-14,76.9c-8.1,23.8-30.2,68.7-45.3,88.5c-2.1,2.8-27.9,33.6-30.2,36.1
	c-2.9,3.2-27.9,27.3-29.9,28.9c-6.9,5.1-15,7.8-22.4,11.9c-0.4-0.2-0.7-0.4-1.1-0.5c-13-6.7-20.9-16.8-32.1-25.4
	c-28.9-22.1-76.6-46.6-88.5-56.6c-14-11.8-22.7-30-37.5-41.5c2.5,0.1,8.4,1.1,8.9,1.1c-2-11.6,18.6-21,43.6-17
	c22.6-7.4,31-4.9,49.7-21.1c4.8-4.2,42.5-42.2,46-47c23.2-31.9,19.1-54.6,25.9-90.9c1.6-21.9-0.3-32.3-12.2-48.9
	C314.4,98.3,326.5,101.2,338.7,105.7L338.7,105.7z"/>
<path class="st4" d="M316.9,288.6c1.3,0.2,0.8,0.9,0.3,1.9c-1.5,3-34.2,37-37,38.6c-9.4,5.4-31.8,5.7-42.9,4
	c8.4-8.3,19.2-18.6,29.4-24.5C272.6,305.1,312.7,288,316.9,288.6L316.9,288.6z"/>
<path class="st6" d="M399.3,228.7c18.2-2.3,2.2,18,1,24.2c-1.6,8.9,4.4,20.1-14.9,25.5c-40.6,3.4-38.7,10.4-13.5-14.9
	C372.9,251.8,386.7,230.3,399.3,228.7L399.3,228.7z"/>
<path class="st4" d="M193.9,329c5.8-1,23.3,3.2,30.5,4.6c-5.8,1.8-25.7,12.2-27.8,12.7c-9.2,2-18.9-3.8-17-10
	C180,335,193.1,329.2,193.9,329L193.9,329z"/>
<path class="st6" d="M228.7,100.9c5.8,1,11.2,0.3,16.9,1.9c-3.8-4.6,11.7-5.3,22.1,0.5c8.8-0.1,22.7,16,28.4,23.4
	c11.8,15.5,13,56.6,1.6,79c-7.2,14.3-52.5,65.6-66.7,74.6c-33.2,21-71.2,4.7-78.3,4.7c-8.1-0.1-14.2,7.4-26.5-1.6
	c-7.3-5.3-16.6-24.3-19-33c-7.4-26.7,6.4-44.5,17.3-66.9c2.1-4.3,6.1-13.4,6.4-14.1c6.9-13.7,30.6-34.9,43.4-43.7
	C191,114.3,209.3,106,228.7,100.9L228.7,100.9z"/>
<path class="st5" d="M228.7,100.8c26.4-6.9,45.8-8,72.8-4.3l0,0c12,16.6,21,25.8,19.4,47.7c-6.7,36.3-3.8,63-27,94.9
	c-3.5,4.8-41.9,45.7-46.7,49.9c-18.7,16.2-30.3,17.5-52.9,24.8c-25.1-3.9-43.5,7.3-45.8,7.5c-0.4,0-6.4-1-8.9-1.1
	c-5.6-4.4-22.3-14-31.3-20.5c-4.2-3-8.1-6.8-12.4-9.7c-3.1-43.6,8.8-85.9,35.1-120.8c-0.4,0.7-3.3,10-5.4,14.3
	c-10.9,22.4-22.5,38.6-15.1,65.3c2.4,8.7,12.4,25.1,19.7,30.5c12.3,9,14.1-0.6,22.1-0.5c7.1,0.1,39.6,18.8,72.8-2.2
	c14.2-8.9,63.7-58.2,70.9-72.6c11.3-22.4,11.8-61.9,0-77.4c-4.6-6.2-15.6-8-22.5-12.3c-6.8-2.3-23.8-11.5-25.7-10.9"/>
<path class="st8" d="M314.5,451.7c-6.9,0.4-10.6-4.7-16-7.4c7.4-4.1,15.8,1.1,22.6-4c15.5,1.4,46.8-20.8,48.5-25.7
	c2.3-2.5,33.3-30.9,35.4-33.7c6.8-19.4,46.7-64.8,41.1-108.3c-0.2-1.4-0.2-2.7-0.1-4.1c4.4-61-6.2-49.4-5.4-66.2
	C488.9,309.6,423,429,314.5,451.7L314.5,451.7z"/>
</svg>
